<svg xmlns="http://www.w3.org/2000/svg" width="256" height="256" viewBox="0 0 1000 1000">
  <metadata><?xpacket begin="﻿" id="W5M0MpCehiHzreSzNTczkc9d"?>
<x:xmpmeta xmlns:x="adobe:ns:meta/" x:xmptk="Adobe XMP Core 5.6-c138 79.159824, 2016/09/14-01:09:01        ">
   <rdf:RDF xmlns:rdf="http://www.w3.org/1999/02/22-rdf-syntax-ns#">
      <rdf:Description rdf:about=""/>
   </rdf:RDF>
</x:xmpmeta>
                                                                                                    
                                                                                                    
                                                                                                    
                                                                                                    
                                                                                                    
                                                                                                    
                                                                                                    
                                                                                                    
                                                                                                    
                                                                                                    
                                                                                                    
                                                                                                    
                                                                                                    
                                                                                                    
                                                                                                    
                                                                                                    
                                                                                                    
                                                                                                    
                                                                                                    
                                                                                                    
                           
<?xpacket end="w"?></metadata>
<defs>
    <style>
      .cls-1 {
        fill-rule: evenodd;
      }
    </style>
  </defs>
  <path id="Фигура_75" data-name="Фигура 75" class="cls-1" d="M393.329,606.707c21.242-35.207,31.46-69.944,31.46-106.707h0c0-36.76-10.218-71.5-31.461-106.707-77.934-48.3-136.127-125.961-194.766-194.774C139.91,148.4,82.275,97.519,26.047,44.691h0C107.028,156.9,169.788,282.165,252.371,392.768,295.815,450.951,424.789,500,424.789,500S295.815,549.05,252.372,607.233C169.789,717.835,107.028,843.1,26.047,955.308h0C82.274,902.478,139.91,851.6,198.562,801.478,257.2,732.665,315.4,655.011,393.329,606.707ZM974.018,44.691h0C917.789,97.518,860.155,148.4,801.5,198.517,742.57,267.676,684.342,343.754,606.738,393.292,585.494,428.5,575.278,463.239,575.279,500h0c0,36.763,10.215,71.5,31.458,106.709C684.342,656.245,742.57,732.32,801.5,801.479c58.652,50.117,116.286,101,172.515,153.829h0C892.964,843.005,829.994,718.2,747.691,607.233,704.181,548.568,653.413,499.055,575.279,500h0c78.134,0.946,128.9-48.569,172.414-107.232C829.994,281.8,892.964,156.994,974.018,44.691ZM606.737,606.709c-35.208-21.243-69.944-31.462-106.7-31.462h0c-36.76,0-71.5,10.218-106.7,31.46-48.3,77.936-125.956,136.13-194.767,194.771C148.447,860.131,97.567,917.769,44.741,974h0c112.2-80.983,237.465-143.748,348.064-226.333,58.179-43.443,107.228-172.419,107.228-172.419S548.6,704.156,607.26,747.67C718.22,829.976,843.026,892.946,955.326,974h0C902.5,917.77,851.618,860.133,801.5,801.479,732.345,742.545,656.271,684.317,606.737,606.709ZM393.328,393.293c35.208,21.244,69.945,31.461,106.705,31.461h0c36.76,0,71.5-10.218,106.705-31.462,49.533-77.61,125.607-135.839,194.765-194.775C851.618,139.864,902.5,82.228,955.326,26h0C843.025,107.053,718.22,170.025,607.26,252.331,548.6,295.845,499.086,346.618,500.033,424.754h0c0.942-77.892-49.047-128.977-107.228-172.422C282.207,169.746,156.942,106.984,44.742,26h0c52.826,56.23,103.707,113.865,153.82,172.517C267.373,257.16,345.026,315.356,393.328,393.293Z"/>
</svg>
